<svg xmlns="http://www.w3.org/2000/svg" xmlns:xlink="http://www.w3.org/1999/xlink" width="80" height="80"
     viewBox="0 0 80 80">
  <defs>
    <linearGradient id="vehically-logo-prod-b" x1="50%" x2="50%" y1="100%" y2="0%">
      <stop offset="0%" stop-color="#5A4AB3"/>
      <stop offset="100%" stop-color="#7963F0"/>
    </linearGradient>
    <rect id="vehically-logo-prod-a" width="80" height="80" x="0" y="0" rx="15"/>
  </defs>
  <g fill="none" fill-rule="evenodd">
    <mask id="vehically-logo-prod-c" fill="#fff">
      <use xlink:href="#vehically-logo-prod-a"/>
    </mask>
    <use fill="url(#vehically-logo-prod-b)" fill-rule="nonzero" xlink:href="#vehically-logo-prod-a"/>
    <path fill="#FFF" fill-rule="nonzero"
          d="M-6.40104167,64 C-5.61979167,64 -4.96875,63.708577 -4.44791667,63.125731 C-3.92708333,62.542885 -3.66666667,61.8479532 -3.66666667,61.0409357 L-3.66666667,61.0409357 L-3.66666667,58.2163743 L29.6666667,58.2163743 L29.6666667,61.0409357 C29.6666667,61.8479532 29.9270833,62.542885 30.4479167,63.125731 C30.96875,63.708577 31.6197917,64 32.4010417,64 L32.4010417,64 L35.265625,64 C36.046875,64 36.6979167,63.708577 37.21875,63.125731 C37.7395833,62.542885 38,61.8479532 38,61.0409357 L38,61.0409357 L38,38.1754386 L32.2708333,20.9590643 C31.6631944,18.9863548 30.3177083,18 28.234375,18 L28.234375,18 L-2.234375,18 C-4.31770833,18 -5.66319444,18.9863548 -6.27083333,20.9590643 L-6.27083333,20.9590643 L-12,38.1754386 L-12,61.0409357 C-12,61.8479532 -11.7395833,62.542885 -11.21875,63.125731 C-10.6979167,63.708577 -10.046875,64 -9.265625,64 L-9.265625,64 L-6.40104167,64 Z M30,36 L-8,36 L-3.91946309,22 L25.9194631,22 L30,36 Z M28,50 C26.9166667,50 25.9583333,49.625 25.125,48.875 C24.375,48.125 24,47.1666667 24,46 C24,44.8333333 24.3958333,43.875 25.1875,43.125 C25.9791667,42.375 26.9166667,42 28,42 C29.0833333,42 30.0208333,42.375 30.8125,43.125 C31.6041667,43.875 32,44.8333333 32,46 C32,47.1666667 31.6041667,48.125 30.8125,48.875 C30.0208333,49.625 29.0833333,50 28,50 Z M-4,50 C-5.08333333,50 -6.04166667,49.625 -6.875,48.875 C-7.625,48.125 -8,47.1666667 -8,46 C-8,44.8333333 -7.60416667,43.875 -6.8125,43.125 C-6.02083333,42.375 -5.08333333,42 -4,42 C-2.91666667,42 -1.97916667,42.375 -1.1875,43.125 C-0.395833333,43.875 0,44.8333333 0,46 C0,47.1666667 -0.395833333,48.125 -1.1875,48.875 C-1.97916667,49.625 -2.91666667,50 -4,50 Z"
          mask="url(#vehically-logo-prod-c)"/>
  </g>
</svg>
